<svg version="1.2" xmlns="http://www.w3.org/2000/svg" viewBox="0 0 700 700" width="700" height="700">
	<title>box-svg</title>
	<defs>
		<clipPath clipPathUnits="userSpaceOnUse" id="cp1">
			<path d="m350.12 14c0.93 0.02 1.84 0.27 2.64 0.74l225.48 130.21q0.17 0.1 0.33 0.22 0.12 0.07 0.23 0.15 0.11 0.07 0.22 0.14 0.1 0.08 0.21 0.15 0.11 0.11 0.21 0.22 0.09 0.11 0.17 0.22 0.1 0.11 0.19 0.22 0.08 0.11 0.15 0.22 0.1 0.15 0.19 0.3 0.06 0.11 0.12 0.22 0.08 0.14 0.15 0.29 0.06 0.11 0.11 0.22 0.07 0.15 0.13 0.3 0.04 0.11 0.08 0.22 0.05 0.14 0.08 0.29 0.04 0.11 0.07 0.22 0.04 0.15 0.06 0.3 0.02 0.1 0.02 0.22 0.03 0.18 0.05 0.36 0 0.11 0 0.22 0.01 0.08 0.02 0.15v260.43c0 1.98-1.06 3.81-2.78 4.8l-225.48 130.21c-1.71 1-3.83 1-5.54 0l-225.48-130.21c-1.72-0.99-2.77-2.82-2.77-4.8v-260.43c0-0.83 0.18-1.65 0.54-2.39q0.12-0.27 0.26-0.52 0.15-0.23 0.32-0.44 0.16-0.23 0.35-0.44 0.37-0.41 0.83-0.73 0.22-0.16 0.46-0.3l225.48-130.21c0.88-0.51 1.88-0.77 2.9-0.74zm-101.79 70.68l214.4 123.82 101.66-58.71-66.13-38.19-74.45 43c-1.71 0.99-3.83 0.99-5.54 0v-0.01l-71.05-41.02c-1.72-0.99-2.77-2.82-2.77-4.8 0-1.98 1.05-3.81 2.77-4.8h-0.01l68.92-39.79-66.14-38.2zm112.74 24.09l59.96 34.63 66.14-38.19-59.97-34.64zm-225.48 41.03l66.14 38.19 74.44-42.99c0.89-0.5 1.89-0.76 2.91-0.73 0.93 0.02 1.83 0.27 2.64 0.73l71.05 41.03c1.71 1 2.76 2.83 2.76 4.81 0 1.97-1.05 3.8-2.76 4.79l-0.01 0.01-68.9 39.79 66.13 38.19 101.66-58.71-214.4-123.82zm77.22 44.58l11.63 6.72 43.2 24.94 5.15 2.97 66.12-38.18-59.97-34.63zm142.72 88.82v247.64l214.4-123.82v-247.64zm-225.5-123.81v247.63l66.06 38.15 0.09-247.59-66.14-38.2zm77.23 44.62l0.02 0.01v-0.01zm0.03 0.01l-0.09 247.47 59.99 34.62 0.06-247.48-25.65-14.82zm70.97 288.61l66.19 38.22v-247.64l-66.11-38.18zm223.85-242.16c1.08 1.05 1.69 2.48 1.69 3.98l0.09 49.21c0 1.98-1.06 3.82-2.78 4.81l-71.07 41.02c-1.72 0.98-3.83 0.98-5.54-0.01-1.71-0.99-2.77-2.81-2.77-4.79l-0.09-49.23c0-1.99 1.06-3.83 2.77-4.82l71.08-40.99c0.79-0.45 1.68-0.71 2.59-0.73 1.5-0.05 2.96 0.51 4.03 1.55zm-69.38 48.17l0.06 36.46 60-34.63-0.06-36.43z"/>
		</clipPath>
	</defs>
	<style>
		.s0 { fill: #000000 } 
	</style>
	<g clip-path="url(#cp1)">
		<path id="Layer" fill-rule="evenodd" class="s0" d="m350.1 14c1 0 1.9 0.3 2.7 0.7l225.4 130.2q0.2 0.2 0.4 0.3 0.1 0 0.2 0.1 0.1 0.1 0.2 0.2 0.1 0 0.2 0.1 0.1 0.1 0.2 0.2 0.1 0.1 0.2 0.3 0.1 0.1 0.2 0.2 0.1 0.1 0.1 0.2 0.1 0.1 0.2 0.3 0.1 0.1 0.2 0.2 0 0.2 0.1 0.3 0.1 0.1 0.1 0.2 0.1 0.2 0.1 0.3 0.1 0.1 0.1 0.2 0.1 0.2 0.1 0.3 0.1 0.1 0.1 0.2 0 0.2 0 0.3 0.1 0.2 0.1 0.3 0 0.1 0 0.3 0 0.1 0 0.3 0 0 0 0.1v260.4c0 2-1 3.8-2.7 4.8l-225.5 130.2c-1.7 1-3.9 1-5.6 0l-225.5-130.2c-1.7-1-2.7-2.8-2.7-4.8v-260.4c0-0.8 0.2-1.6 0.5-2.4q0.1-0.3 0.3-0.5 0.1-0.2 0.3-0.5 0.2-0.2 0.3-0.4 0.4-0.4 0.9-0.7 0.2-0.2 0.4-0.3l225.5-130.2c0.9-0.5 1.9-0.8 2.9-0.8zm-101.8 70.7l214.4 123.8 101.7-58.7-66.1-38.2-74.5 43c-1.7 1-3.8 1-5.5 0l-71.1-41c-1.7-1-2.8-2.8-2.8-4.8 0-2 1.1-3.8 2.8-4.8l68.9-39.8-66.1-38.2zm112.7 24.1l60 34.6 66.1-38.2-59.9-34.6zm-225.5 41l66.1 38.2 74.5-43c0.8-0.5 1.9-0.7 2.9-0.7 0.9 0 1.8 0.3 2.6 0.7l71.1 41.1c1.7 1 2.7 2.8 2.7 4.8 0 1.9-1 3.8-2.7 4.8h-0.1l-68.9 39.8 66.2 38.1 101.6-58.7-214.4-123.8zm77.3 44.6l11.6 6.7 43.2 25 5.1 2.9 66.2-38.1-60-34.7zm142.7 88.8v247.7l214.4-123.8v-247.7zm-225.5-123.8v247.6l66.1 38.2 0.1-247.6-66.2-38.2zm77.2 44.6h0.1zm0 0l-0.1 247.5 60 34.6 0.1-247.5-25.7-14.8zm71 288.6l66.2 38.3v-247.7l-66.1-38.2zm223.8-242.1c1.1 1 1.7 2.4 1.7 3.9l0.1 49.3c0 1.9-1.1 3.8-2.8 4.8l-71.1 41c-1.7 1-3.8 1-5.5 0-1.7-1-2.8-2.8-2.8-4.8l-0.1-49.2c0-2 1.1-3.9 2.8-4.9l71.1-40.9c0.8-0.5 1.7-0.8 2.6-0.8 1.5 0 2.9 0.5 4 1.6zm-69.4 48.1l0.1 36.5 60-34.6-0.1-36.5z"/>
		<rect width="700" height="700" id="단색 채우기 1" style="fill: #ffffff"/>
	</g>
</svg>