<svg version="1.2" xmlns="http://www.w3.org/2000/svg" viewBox="0 0 700 425" width="700" height="425">
	<title>noun-world-map-418362-svg</title>
	<style>
		.s0 { fill: #000000 } 
	</style>
	<g id="Layer">
		<path id="Layer" class="s0" d="m76.7 104v-1.7l9-4.5v-1.1l-2.3-0.5v-2.3l2.3-5.6h3.9l7.8-2.2 1.7-6.2 9-4.5h6.7l10.6-3.3h2.3l8.4 5 12.3 2.8 12.9-0.5 7.8 6.1 2.8 0.6 3.4-1.7h2.8l10.6 4.5 6.7-2.3v-1.1l-1.1-2.8 2.8-2.2h1.7l0.6 0.5 0.5 4 6.2 1.6v-1.6h1.7l1.6 1.6v1.7l-3.3 3.4-9 0.5-6.1 4-8.4 2.2-2.8 3.9-2.8 5.1-0.6 3.9 3.9 2.2 3.4 3.4 2.8 0.5v2.3l-1.7 3.3v2.8l3.4-0.5 4.4-7.3 4.5-2.8 0.6-3.9 6.7-9.5 6.2-0.6 2.8 5v1.7l-0.6 1.7 3.9 0.6 2.8-4h1.1l1.2 7.9 3.9 8.9v2.3l-1.1 2.2-8.4 3.9-3.4 0.6-0.6-1.1h-6.7l-8.9 5.6v1.1h1.1l5.6-3.4h5v1.2l-1.7 1.6v2.8l4 1.7-0.6 2.3-5 1.1-1.7 1.1v1.1l-1.1-0.5v-1.2l2.2-1.1v-2.2l-4.5 1.1-6.1 3.4-2.3 3.9-5 0.5-4.5 6.8-1.7 2.2-1.7 0.6 0.6-3.4h-1.1l-2.3 7.3-6.7 5-4.5 5.1-0.5 5-1.1 6.7-0.6 2.3h-1.1l-1.7-4v-7.2l-2.8-1.2h-3.9l-3.4 0.6v2.2l-2.8 0.6-3.3-1.7h-5.6l-5.6 5.1-3.4 6.7-1.1 7.3 1.7 4.4 1.6 2.8h6.2l2.8-4.4 7.3-1.2v2.3l-5.1 8.9-0.5 1.7 9.5 0.6-1.1 8.4v3.9l1.7 1.1 1.1 2.3 2.2 1.1 2.3-1.1 1.6-0.6 1.2 0.6 1.1 1.1 0.5 1.1h1.7l1.7-5.6 2.8-1.1 3.4-1.7 2.2-1.7 1.1 0.6v1.1l-1.7 1.1v1.7l-0.5 0.6-0.6 2.2 1.1 1.1 2.3-0.5v-4l1.1-2.8h1.7l4.5 4 3.9 0.5 2.2-0.5 1.7-0.6 1.1 0.6 1.7 2.8 2.8 2.2 1.7 2.2 3.3 3.4 7.3 1.1 2.3 2.8 2.2 2.8 1.1 3.9-0.5 2.8-1.2 1.7-1.1 1.7v1.1h1.1v-1.1l2.8-1.1 0.6-0.6h2.2v1.7l-0.5 1.1-1.1 0.6h-1.2v1.7h2.3l1.7-1.7 0.5-2.3h1.7l1.7 1.7 2.2 1.1 5.6 2.8h4.5l6.2 4h2.2l1.7 8.4-7.9 10 1.2 5.1v5l-2.3 7.9-1.7 5.6-6.1 2.2-5.6 3.4-0.6 8.4-2.2 6.1-2.3 5.6-2.2 3.4h-1.7l-4.5-2.3-2.2-0.5 5 6.1-1.6 3.4-1.7 2.2h-3.4l-1.7 1.2v1.1l0.6 0.5-0.6 2.3-2.8 1.1v1.7l1.7 2.2-0.5 3.9-2.3 4 4.5 2.8v2.2l-1.1 1.7v4.5l1.1 3.3-1.7 2.3v1.6h-1.1l-2.8-1.6-0.6-2.3-1.6-0.5-6.2-10.7-1.1-0.5-1.1-0.6v-1.1l1.6-1.1v-2.3l-2.2-7.3-3.9-2.2-0.6-2.2v-2.8l-1.1-2.3 0.6-5 0.5-0.6v-6.7l-1.7-2.2v-7.3l-0.5-3.4-0.6-3.3-0.5-4.5v-3.9l-0.6-3.4-1.1-3.9-0.6-1.7-4.5-3.4-7.2-7.2-2.3-4-2.2-2.8-2.3-4.4-0.5-1.7-1.1-3.4-4-2.2v-5.1l2.3-2.2v-1.1h-1.7v-3.4l1.1-5.6 5.1-5v-10.1l-0.6-2.2-1.1-0.6h-0.6l-1.1 0.6-0.6 2.2h-2.2l-3.4-3.4-3.9-2.2-1.1-1.7-0.6-2.8-1.1-2.2-1.1-2.3h-2.8l-3.4-2.8-3.3-2.2-1.7-2.2-1.1-1.2-1.1 1.2-2.3 1.1-7.3-4.5-3.9-2.2-3.3-2.8-1.7-2.3 0.5-2.2v-5.6l-3.3-6.7-2.3-5.6-1.1-4.5v-9.5h-1.1l-0.6 2.2-1.1 4.5-0.5 2.8 1.1 2.8 3.3 12.3v1.1h-1.6l-1.2-3.3-1.6-2.8-1.7-4-0.6-2.2 1.1-3.4-0.5-2.2-0.6-3.4-0.5-2.2v-3.4l-3.4-2.8v-4.4l1.1-5.1 1.7-5.6 5.6-9.5 3.4-6.2 2.8-3.3h2.2v1.1l1.1 0.6v-2.3l0.6-4.5-1.1-2.8 0.5-3.3 1.7-6.2 2.2-5 0.6-2.8v-1.1h-0.6l-1.6 0.5h-1.2l-1.1-2.2-0.5-1.7-2.3-0.6-2.8-1.6-1.1-1.2h-1.1l-1.1 1.2-2.3 1.1-1.1 0.5h-3.4l-0.5-0.5 1.1-1.1 1.7-0.6 1.1-1.1 1.7-1.1v-1.2h-1.1l-3.4 1.7-12.9 6.7-5 2.8-2.3 0.6z"/>
		<path id="Layer" class="s0" d="m70 105.1v-1.7l2.2-0.5 1.7 0.5 0.6 1.2-1.7 0.5z"/>
		<path id="Layer" class="s0" d="m108.6 123v-2.2h2.3l0.5 1.7 1.2 1.7v2.8h-0.6l-1.7-1.7v-2.3z"/>
		<path id="Layer" class="s0" d="m173 141.5l-2.2-1.1-1.7 0.6-2.2 2.2-0.6 2.8-2.8 2.2-0.5-1.6 1.6-3.4 1.2-2.8 1.6-1.1 5.1-0.6-0.6-1.7-2.2-0.5-2.3-1.1-2.8 0.5-1.6-0.5v-1.2l4.4-2.2 3.4-0.6 2.2 2.3 0.6 2.8 0.6 1.1 2.8 0.6 1.6 2.8v1.6h-0.5l-1.1-1.1-1.2 0.6-1.6 2.8h-1.2z"/>
		<path id="Layer" class="s0" d="m169.7 149.4v-1.2l3.3-0.5 2.3-0.6 2.8-1.1 3.3-0.6 1.7-1.1h1.7v1.1l-2.2 1.2-4.5 0.5-1.1 1.1-4.5 1.2z"/>
		<path id="Layer" class="s0" d="m217.3 134.2l6.7-5 1.7-0.6 0.5 1.2-1.1 2.8 1.1 1.6 0.6 3.4-0.6 2.8-2.8-1.7-2.2-1.1h-2.8l-1.1-2.2z"/>
		<path id="Layer" class="s0" d="m253.7 56.4v1.1l-5.1 3.4h-5l-5.6 2.2-5.6 5.6-2.8 0.6h-3.9l-1.7-1.7v-1.1l2.8-2.8 4.5-2.3 4.5-1.1v-1.1l-3.4-0.6-5 0.6-2.8-0.6v-1.1l3.9-1.1 3.9-1.1h5l2.8 1.7h7.3l4.5-0.6z"/>
		<path id="Layer" class="s0" d="m196 98.4l-1.1-1.1v-1.1l3.9-2.8h2.2l0.6 0.5v2.8l1.1 0.6v1.7h-1.1l-1.1-1.7h-1.7l-1.1 0.5v1.2z"/>
		<path id="Layer" class="s0" d="m164.1 76l3.3-2.2 3.4-3.4 3.4-1.1 3.9 2.2v1.1l-6.2 1.7-2.8 2.8h-3.9z"/>
		<path id="Layer" class="s0" d="m186.5 67.6l1.7-0.6 1.6 1.7 0.6 0.6h0.6l1.6-2.8 1.7 0.5 0.6 2.3-1.7 2.2-2.8 0.6h-6.7v-2.8z"/>
		<path id="Layer" class="s0" d="m171.9 78.8v-1.1l4.5-2.8 3.4-0.6 4.4 2.3 2.8 0.5v1.7l-1.6 1.7 0.5 0.5 0.6 1.7h-0.6l-2.2 0.6-1.7 1.1-3.4-1.1h-8.4l-2.2-1.7v-1.1l3.9-0.6 2.3 0.6v-1.1l-1.7-0.6"/>
		<path id="Layer" class="s0" d="m191.5 75.4l3.9-2.2 4 1.1v1.7l-1.2 1.7-2.2 2.2h-2.8l-1.7-1.7z"/>
		<path id="Layer" class="s0" d="m202.2 74.9l2.2-0.6h3.4v1.7l-2.8 1.7-2.8 1.1h-1.7v-2.2z"/>
		<path id="Layer" class="s0" d="m200.5 68.2h3.3l1.2 1.1v1.7l-2.8 1.6h-1.2l-0.5-3.3z"/>
		<path id="Layer" class="s0" d="m211.7 68.2l2.8 3.3h8.9l0.6 2.3h-9l-5-1.7-1.1-3.4z"/>
		<path id="Layer" class="s0" d="m206.6 82.2l-0.5-2.8 5.6-4h5.6v1.7l1.1 1.7 4.5-0.6 1.7 1.7 3.3 2.3 2.3 2.2-0.6 1.7-1.1 1.7v0.5l5.6 3.4-0.6 1.7-5.6 3.3-1.7-1.1-1.1-1.7h-1.1v3.4l-2.8 5.6-1.1 0.5-2.3-1.6-4.4-4.5h-5.6l-1.2-1.1 2.8-2.3h4.5l5.6-6.1 1.7-1.7-0.6-1.7-5.6-0.6-5-0.5z"/>
		<path id="Layer" class="s0" d="m152.3 196.4v-0.6l2.3-1.6 7.8 0.5 9 6.2v1.7h-6.8l0.6-1.7-1.1-0.6-1.7-1.7-1.7-2.2z"/>
		<path id="Layer" class="s0" d="m162.4 205.4h3.4l-0.6 1.6h-1.7l-1.1-0.5z"/>
		<path id="Layer" class="s0" d="m170.2 205.4h2.8v-2.3h1.2l3.3-0.5 2.3 2.2h2.2v1.1l-3.9 0.6-2.3 1.1-0.5-0.6-2.8-0.5h-2.8v-0.6"/>
		<path id="Layer" class="s0" d="m185.4 205.9h1.6l1.2 1.1-2.8 0.6-1.2-0.6z"/>
		<path id="Layer" class="s0" d="m194.3 209.8l1.1 0.6v1.7l-1.6 0.5-1.2-2.8z"/>
		<path id="Layer" class="s0" d="m193.8 213.2h1.1l0.5 3.9h-1.6z"/>
		<path id="Layer" class="s0" d="m280.6 54.2l15.1 0.5v1.1l-1.7 0.6-2.8 1.1v0.6l1.7 1.1 2.2 1.1 2.3 1.1 2.2-0.5 2.2-1.1h4l2.8 0.5v1.1l-1.7 0.6-3.9 1.7-1.2 1.1-3.9 2.2-3.9 3.4v2.8l3.4 2.2v0.6l-2.3 3.4-1.7 1.6h-1.6l-1.2-0.5-1.6 0.5v1.7l2.2 2.3v1.1h-2.2l-1.2-1.1h-1.1v1.6l2.8 1.2h1.7l-0.6 2.2h-5l-7.3 1.1-7.8 3.4-6.7 2.2-9.6 11.8-2.2 1.1-2.8-2.8-3.4-2.2v-8.4l4.5-6.2 3.4-5.6-2.3-4.5-1.1-6.1-3.9-2.8h-5l-0.6-2.8 2.2-1.7 1.2 0.5h3.3l1.1-1.1v-2.2l17.4-7.3h2.8l2.8 1.7 6.7-0.6z"/>
		<path id="Layer" class="s0" d="m285.6 96.7l1.7-1.7h1.1l1.7 2.3h1.1l2.2-1.1 4-0.6 1.6 1.7-0.5 2.8-3.4 2.2-5-0.5-2.8-0.6v-1.7l-1.1-0.5z"/>
		<path id="Layer" class="s0" d="m300.2 130.9l1.1-2.3-1.1-0.5 1.1-1.7 1.7-3.4 2.8-1.1h1.6l1.7 0.6-1.7 2.8-1.1 2.8-2.2 2.8h-1.1l-0.6-0.6-1.1 0.6z"/>
		<path id="Layer" class="s0" d="m314.2 113.5v0.6l-1.2 1.1 1.7 0.6 1.1 1.6-1.6 1.2v1.1l1.1 2.2 1.1 2.8 1.7 2.8h2.2v1.7l-1.7 2.2-3.3 0.6-4.5 1.1-3.4 0.6 0.6-1.1 2.2-1.2v-1.1l-0.5-0.5 1.1-2.8 2.2-1.7v-2.3l-1.6-0.5-2.3-2.8v-3.4l1.7-2.8z"/>
		<path id="Layer" class="s0" d="m300.2 163.4v-14l2.8-0.6h3.3l3.9 1.1h1.7l2.3-1.1-0.6-1.7 1.1-1.7-0.5-3.3-2.3-1.7-2.2-1.1-0.6-0.6v-1.7h3.4l0.5-1.6-0.5-0.6 1.7-0.6 0.5 1.7h2.3l3.9-4.5 1.7-0.5 1.1-1.7 1.1-0.6 0.6 1.7 0.5-0.5v-3.4l2.3-0.6 2.8-0.5 0.5-2.3v-3.9l-0.5-1.7 1.6-1.1 1.7-0.5 0.6 1.6v2.8l-1.1 1.2v1.6l1.6 0.6 2.8 0.6h1.7l2.8-1.2h4.5l1.7 0.6 1.1-0.6 0.6-2.8 1.1-2.8 1.1-1.1h1.1l0.6 0.6 1.7-0.6v-1.7l-0.6-2.2 3.9-0.6h1.7l2.2-1.1-1.1-1.1-0.5-0.6-1.7 0.6-1.7 0.6-2.2 0.5h-2.3l-2.8-5.6v-1.7l2.3-2.2 1.6-1.7v-2.8h-0.5l-1.7-0.5-1.7 1.6-2.2 2.3v1.7l-2.3 1.1-1.6 3.9 1.1 2.8v1.7l-1.7 2.8-1.1 2.8v1.7l-1.1 1.1-1.2 0.5-0.5 1.2h-2.3v-2.3l-1.1-1.7-1.1-1.1v-2.8l-0.6 0.6v-1.7l-2.2 1.1h-0.6l-1.1 1.1h-2.2l-1.1-1.6v-5.6l2.8-2.3 2.2-2.2 5-5.1 4-3.3 5-5.1 7.8-5h4l3.3 1.1 1.7 1.1 5.6 2.3 5 3.3h1.2l1.1 1.2 0.5 0.5v1.7l-0.5 1.1h-2.3l-2.8-1.1-2.2-0.6-2.2-1.1v2.3l1.1 1.1 2.2 1.1 2.8 2.8h1.7l3.9-3.4 1.1-0.5 1.7-1.7 0.6 1.1h1.7v-2.2l-1.2-0.6v-1.7l-1.1-0.5v-2.3h1.1l2.3 1.7v2.3h1.1l3.4-1.2 4.4-1.6 3.4-1.2 5-1.1 5.6-0.5 2.8 1.6h2.3v-1.6l-1.7-2.3-1.7-0.5v-1.7l3.4-3.4 0.5-0.5 2.3-0.6 0.5 1.1v2.3l5.1 6.7v2.8l-1.7 0.5-1.1 1.7h2.8l1.7-1.7 0.5-3.3h3.4v-1.1l-3.9-1.2-2.8-2.2-1.2-2.8 6.2-3.9 2.8-2.3 3.4-2.8 8.9-2.8 3.4-0.5h14l2.2 0.5-0.5 2.3-2.8 3.9 1.1 0.6 5-2.8h6.2l20.1 3.3 2.3 0.6 5-0.6 0.6-2.2 1.1-1.7 3.4 0.6 8.4 1.6h7.8l5.6-0.5 6.2 2.2h5l6.2-2.8h5l12.3 1.1 7.9 2.8 5 1.2 2.2 1.6v1.2h-2.2l-2.2-0.6h-3.4l-1.1-0.6-1.1 0.6v2.8l3.3 1.1 2.8 1.1 1.7 0.6-0.6 1.7-3.3 5v1.1l-4.5 0.6-2.8 1.1 1.7 2.3 3.9 3.9 3.4 5.6 1.6 5.6v3.3h-1.1l-2.2-2.8-3.4-3.3-5-4.5-3.4-2.2v-2.8l1.7-2.3-0.6-3.3-1.6-2.8-1.2-0.6-1.1 1.7h-0.5l-1.2-0.6h-2.2v2.8l1.1 2.8-2.2 1.7-3.9 0.6-3.4 0.5h-3.9l-3.4 1.1-0.5 1.2v7.2l2.8 2.8h1.1l0.5-0.5h2.3l2.2 1.7 3.9 4.4 2.3 4.5 1.7 4.5 1.1 5.6 0.5 5.6-5.6 1.7-0.5 4.5-0.6 3.9 2.3 3.3 2.8 4.5 0.5 1.1v1.7l-1.7 1.1-1.6 1.2-0.6-1.7-1.7-3.4-1.7-2.8-2.2-1.7-3.4-3.3h-0.5l-2.3 2.2-1.6-0.5v-2.3l0.5-1.1h-2.2l-3.4 3.4v1.6l2.3 2.3h4.4l2.3 1.1-0.6 1.1-1.1 0.6v2.8l4.5 6.7 2.2 4.5-1.7 0.5 1.7 1.2 1.1 1.6v7.9l-2.2 2.8-5.6 5.6-5 3.3-1.7 2.8h-1.1l-1.2-1.6-1.1-1.2-2.2 1.2-2.3 5.6 0.6 2.2 4.5 3.9 3.3 3.9 0.6 6.8-1.7 2.8-1.7 2.2-2.2 1.7-0.6 1.7h-1.6v-1.7l-1.2-1.7-1.1-1.1-2.2-1.7v-2.2l-1.7-0.6-1.7-1.1-0.5-1.1h-2.3l1.1 5.6v4.4l1.7 4 2.3 3.3 2.2 3.4 1.7 3.3 1.1 2.3-0.6 1.7h-1.6l-1.7-1.7h-1.1l-3.4-7.3-1.7-2.8-2.8-2.8v-7.8l-0.5-5.1-1.7-4.5-1.7-5-1.1 0.6-1.7 1.6-1.7 0.6-1.7-0.6 0.6-4.4-3.4-4.5-2.2-1.7v-1.7l-0.6-2.8h-2.2l-2.2 2.8-1.7-0.5-0.6-1.2-1.7 1.2-2.2 3.9-2.8 3.9-2.2 2.8-3.4 5-1.7 7.3-0.5 4.5-1.7 6.2h-1.1l-1.7-0.6-1.7-5-2.8-4.5-3.9-9.5-1.7-6.8-0.6-6.7h-1.6l-0.6 3.4-1.1 0.5-1.7-1.1-3.4-3.3-1.1-1.7-0.5-2.3-2.8-2.2h-12.9l-2.3-0.6-2.8-1.1v-2.2l-1.1-1.1-2.8 0.5-1.1 1.1h-3.4l-1.6-1.6-3.4-3.4-2.2-2.2h-2.3l-1.1 1.6v1.2l2.8 2.2 1.1 2.2 1.1 0.6 0.6 1.7h1.1l1.7-0.6 0.6 1.1v2.8h1.6l2.8 0.6 1.2-1.7 1.1-2.2h2.2v2.8l0.6 1.7 1.7 0.5 2.2 0.6 1.1 0.5 0.6 1.2-2.3 6.1-2.8 3.9-2.8 2.8-2.2 1.2-3.4 2.2-2.8 2.8-2.8 1.7-7.2 1.7-2.3 0.5-2.2-3.3-1.1-1.7-1.2-6.7-5-7.3-8.4-12.9-1.7-5.6-1.1 1.1-0.6-0.5-0.5-0.6h-1.7v2.2l1.7 3.4 3.9 7.3 3.4 5.6v3.9l4.4 4.5 1.2 4.5 1.1 0.5 2.8 3.4 3.3 3.3-0.5 4 2.2 0.5 3.9-1.1 6.8-2.2 3.3-0.6v1.7l-6.1 15.1-5.1 7.3-6.7 6.7-5 6.2v7.2l2.2 14.6v3.9l-4.5 4.5-4.5 3.9-3.9 3.4 1.1 5v5.1l-5 3.3v1.7l-3.4 6.7-5 6.2-3.9 2.8-3.9 0.5-5.6 1.2-2.3 2.2-1.7-0.6-0.5-1.1-2.8-1.7-0.6-5.6-5-8.9-1.1-7.9-0.6-3.9-3.9-8.9v-9l3.9-7.3-1.7-10.1-3.3-6.7-5.1-7.8 0.6-4.5 1.7-3.4v-2.8h-6.2l-3.4-5h-3.9l-7.8 2.2-10.1 3.4-3.9-0.6-9-9.5-6.1-7.8-2.3-4.5v-5l1.7-5.6v-5.6l0.6-4 5-10.6 2.8-2.8h1.7l3.9-5 1.1-4 0.6-1.6 3.3-2.3 1.2-1.7 2.2-3.3h1.7l1.7 1.1h2.2l6.2-2.2 5-1.2 2.8-0.5 2.8-1.1h3.9l5.1 0.5-0.6 2.3-1.1 3.3 0.5 1.1 2.3 1.7 2.2 1.1 3.4 0.6h1.1l0.6 2.8 2.8 1.1 3.9 1.1h1.7v-1.6h-0.6v-1.7l2.2-1.7 3.4-0.6 1.7 1.7 2.2 1.7 3.4 1.7h2.8l2.2-1.1 2.8-0.6h1.7l1.7 0.6 1.1 0.5 1.1-2.2 0.6-2.3 1.1-2.8v-4.4l0.6-0.6v-1.1l-4 0.5h-6.1l-3.9 0.6-1.2-1.7-1.1-3.3-1.1-3.4h2.2l1.2-1.7 0.5-0.5h3.9l1.2-1.2 1.6-1.1 1.2-1.1h2.8l1.6 1.1 2.3 0.6 1.7 0.5h5.6v-2.2l0.5-1.1-1.1-0.6h-1.7l-1.1-1.7-1.1-1.1-2.3-1.1-1.1-1.1v-1.7l1.7-1.1 1.1-1.1v-0.6l-1.1-0.6-1.1 0.6-4.5 2.2 1.1 1.2v1.6l-1.7 1.2h-1.6l-1.2-1.7-1.1-2.8-0.5-1.1-1.2 0.5-2.8 1.1-1.1 4-1.7 2.8v2.8l1.2 1.6-2.8 2.3h-1.2l-1.6-1.1-2.8 0.5-0.6 1.7v7.8l-2.8 0.6-1.7-1.7v-2.8l1.7-0.5-2.2-0.6-1.2-2.2-1.1-2.8-1.7-2.8-2.2-1.2-3.4-3.3-2.2-0.6-1.1-1.1-0.6-1.1h-1.1l-0.6 1.7 1.2 1.1 1.1 1.7 0.5 1.1 2.3 1.7 1.7 0.5v1.1l2.8 1.7 1.1 1.7 0.5 1.7h-0.5l-1.1-1.1h-0.6v3.3l-0.6 1.1h-1.1v-2.8l-1.7-1.6-1.6-2.3-1.7-1.1h-2.3l-1.6-1.1-1.7-3.4-1.1-1.7-1.2-1.1-1.6 0.6-2.3 2.8-2.2 0.5-1.1-1.1-2.3 1.1-0.5 1.7-5.6 4.5-2.3 5-2.2 4h-1.7l-1.7-1.2-1.7 0.6-2.2 0.6-2.2-1.2-1.7-0.5z"/>
		<path id="Layer" class="s0" d="m333.2 151v2.3l-0.6 0.5h-1.1v-0.5l-0.5-2.3 1.6-1.6z"/>
		<path id="Layer" class="s0" d="m331 156.1l0.5-0.6 1.7-0.5v0.5l-0.6 1.7 0.6 0.6-0.6 1.6h-1.1l-0.5-0.5z"/>
		<path id="Layer" class="s0" d="m343.8 161.7l1.2 1.1-0.6 2.2h-1.7l-1.7-1.1-2.2-1.1v-1.1z"/>
		<path id="Layer" class="s0" d="m358.4 168.4v-1.1l2.2 1.1 3.4-0.6 0.6 1.2-2.3 0.5-1.1-0.5-1.1-0.6z"/>
		<path id="Layer" class="s0" d="m375.2 169l1.1-1.7 3.4-0.6v1.1l-1.1 1.2-1.7 1.1h-1.1z"/>
		<path id="Layer" class="s0" d="m394.8 78.8l0.6 3.9 0.5 0.6 2.8 0.5v1.2h-3.3l-1.2-0.6-4.4-1.1 1.1-4.5z"/>
		<path id="Layer" class="s0" d="m392.6 75.4h1.1l1.1-1.6 1.1-1.7 2.8 0.5h1.7l3.9-3.3h0.6v2.8l-3.4 2.8h-2.2l-1.7 1.1h-0.6l-1.6 1.7h-3.4z"/>
		<path id="Layer" class="s0" d="m543.2 114.1v-1.1h1.7l1.1 1.1 1.7 2.8 2.2 2.2h1.1l3.4 3.9 1.7 1.2v0.5l-0.6 1.1 1.1 2.8 1.7 1.2 1.1 1.1v1.1h-1.1v0.6h-1.1l-1.1-2.8-1.7-1.7-1.7-1.7-2.8-3.4-2.8-2.8-2.2-4.4z"/>
		<path id="Layer" class="s0" d="m558.9 136.5v-1.1l1.7-0.6 1.6 0.6h3.4l1.1 0.5 1.7 1.7v1.7l-1.7 1.1v1.1h-1.7l-1.1-0.5h-1.1v2.2h-1.7l-1.1-1.7-0.6-1.1 0.6-1.1 0.6-1.1z"/>
		<path id="Layer" class="s0" d="m562.2 144.3h1.7l2.3 1.7 1.6 3.4 1.7 4.4 0.6 2.3-0.6 3.9-2.2 0.6-1.7-1.7h-3.4l-2.8 1.7v2.8l-1.6 1.1-2.3-0.6v-1.1l1.7-2.2 4.5-3.4v-2.8h1.1l1.7 0.6 1.1-2.8-1.7-1.7-1.1-3.4z"/>
		<path id="Layer" class="s0" d="m555 166.7v-1.1l1.1-0.6h1.7l1.6 2.8 1.2 1.7-1.2 1.7h-1.1l-1.1-1.1-0.6-1.7v-1.1h-1.6"/>
		<path id="Layer" class="s0" d="m561.1 161.1l1.1-0.5 2.3-0.6 1.1 0.6-1.7 1.6-1.1 0.6h-2.2z"/>
		<path id="Layer" class="s0" d="m492.2 116.3l1.2-0.5 0.5 0.5v4.5l-1.1 2.2-1.1 1.7h-1.7v-1.1l1.7-1.7 1.1-2.2z"/>
		<path id="Layer" class="s0" d="m408.8 143.8h-1.1v1.1l-1.1 0.5-1.2 1.2v0.5l1.7 1.1 2.3 3.4v3.4l1.6 1.6 1.7 2.3 0.6 2.8 1.1 1.1v1.1l-1.7 1.1h-1.7l-3.9-2.2-2.2-0.6v-3.3l1.1-3.4-2.8-3.3-4.5-4.5v-3.4l3.4-2.2 3.9-1.1 1.7-0.6h1.7l0.5 1.1v1.1z"/>
		<path id="Layer" class="s0" d="m421.1 139.8h2.8v0.6l0.6 3.9-1.1 2.3-1.7 0.5h-1.7l-1.1-2.2 0.5-2.8 1.2-1.1z"/>
		<path id="Layer" class="s0" d="m445.2 139.3l1.1-1.1h1.1l1.2 0.5 1.6 0.6h1.2l0.5-0.6h1.7v1.1l-2.2 0.6-2.3 0.6h-2.8v1.1l-0.5 1.1h-0.6l-1.1-1.1h-0.6l-0.5-1.1 1.1-0.6z"/>
		<path id="Layer" class="s0" d="m378 249.6l2.8-1.1h1.1l1.7 0.5v1.2l-1.1 1.1-1.1 1.7v2.8h-1.7l-2.3-1.7z"/>
		<path id="Layer" class="s0" d="m374.1 259.7l0.5 1.1v2.2l1.2 2.8v2.3h-1.2l-1.6-3.4v-5z"/>
		<path id="Layer" class="s0" d="m380.8 272h1.1v2.2l0.6 4.5 0.5 3.9-1.1-0.5-0.5-1.1v-6.2z"/>
		<path id="Layer" class="s0" d="m400.4 295.5l0.6-2.8-1.2-0.5 1.2-4 3.3-2.8 1.7-1.1 1.7-2.8 3.9-3.9 1.1-0.6v10.1l-3.9 10.7-2.8 8.9-3.9 1.7h-2.3l-1.6-3.9v-3.4z"/>
		<path id="Layer" class="s0" d="m423.4 297.2l1.1 1.1v1.1h-1.1l-1.7-0.5v-1.7z"/>
		<path id="Layer" class="s0" d="m426.7 295h1.1v1.6l-0.5 0.6h-1.1z"/>
		<path id="Layer" class="s0" d="m546 186.3l1.7-0.5 0.5 2.8v1.6l1.2 4h-1.7l-1.7-1.7-1.1-2.8z"/>
		<path id="Layer" class="s0" d="m548.2 202.6l2.8-0.6 2.3 2.8-1.1 3.4 1.1 3.9 2.8 1.1 2.8 2.2 0.5 1.2h-1.6l-2.8-2.3h-3.4l-2.8-3.9-0.6-2.2 1.2-1.2-0.6-2.8z"/>
		<path id="Layer" class="s0" d="m473.2 226.1l2.2 3.3 2.3 2.3-1.1 2.8-3.4 1.1-1.7-2.8 0.6-3.4 0.5-2.8z"/>
		<path id="Layer" class="s0" d="m505.1 236.2l6.7 5.6 6.2 6.7 4.5 4.5 2.2 2.8-0.5 3.3v2.3l-2.3 0.5-5-4.5-5.1-8.4-3.9-5.6-3.3-4.4h-1.2l-0.5-2.3z"/>
		<path id="Layer" class="s0" d="m521.9 265.3l1.1-1.7 3.4-1.1 2.2 1.1 5.1 0.6 3.3 1.1 3.4 2.8 0.6 2.8-2.3-0.6-1.7-1.1h-3.3l-2.8-1.1-5.1-1.1-1.6-1.7z"/>
		<path id="Layer" class="s0" d="m551 221.6l-0.5 2.2-1.7 2.8h-1.1v-2.2l1.1-1.7 0.6-1.1 1.1-0.6"/>
		<path id="Layer" class="s0" d="m555.5 219.4h2.3v1.1l-1.2 1.7-1.6 0.5v-1.7z"/>
		<path id="Layer" class="s0" d="m553.3 228.3l1.1-1.7 1.1-0.5h0.6l1.1-0.6 0.6-1.7h1.6l0.6 1.7 1.1 1.7-2.8 3.9h-2.2v-2.2l-0.6-0.6z"/>
		<path id="Layer" class="s0" d="m547.1 232.8l1.1 1.1 1.2 1.1 1.1 1.7-2.3 1.7-0.5 3.4 1.7 1.6 0.5 2.8-2.2 2.3-1.7 5-2.2 4.5-1.2 0.6h-2.2l-6.7-2.8-1.7-4.5-0.6-3.9v-2.3h1.2l5.6-3.9 3.3-3.9 1.7-2.8 0.6-2.3z"/>
		<path id="Layer" class="s0" d="m569.5 242.9l0.6 1.7v3.3l-0.6 1.7h-1.1l-1.1-1.7v-1.7l0.5-2.2 1.2-1.1z"/>
		<path id="Layer" class="s0" d="m561.7 245.7h1.1v0.5l-1.1 1.2-2.3 0.5h-5l-0.6 4.5 2.3-1.7 2.2-1.1 1.7 0.6v1.1h-1.1l-2.8 1.7v1.6l1.7 2.8 0.5 1.7-1.1 1.7-2.2 0.6v-1.7l-0.6-3.9h-1.1l-0.6 2.2 0.6 3.9v0.6h-2.3v-3.4l-0.5-2.2v-3.9l1.7-5.6 1.1-1.7h2.8l0.5 1.1h2.8z"/>
		<path id="Layer" class="s0" d="m543.2 270.9l1.1-1.1 1.1-1.2h3.4v1.2l-1.1 1.1z"/>
		<path id="Layer" class="s0" d="m555 269.2l1.6-1.1h1.2v1.7l-2.8 1.6h-2.8l-1.2-0.5v-1.1z"/>
		<path id="Layer" class="s0" d="m560 272v-1.1h1.7l2.8-1.1h1.1v1.1l-0.6 0.5-3.3 1.7-1.7 1.1h-1.7v-1.6z"/>
		<path id="Layer" class="s0" d="m569 255.8h2.2l2.2 1.1v1.1h-2.8l-1.6-0.6z"/>
		<path id="Layer" class="s0" d="m576.2 250.7h1.2l1.1 0.6 2.2 0.5 0.6 1.2v3.3h2.2l2.8-2.2 4.5 1.1 3.4 1.7 2.8 1.1 4.4 2.8 4.5 3.9-0.5 1.7 0.5 1.7 1.7 2.2 2.8 3.9-0.6 1.7h-2.8l-2.8-1.1-1.1-2.8-2.8-3.4-1.1 0.6-2.8 3.4-2.2-1.2-3.4-0.5-3.4-2.8v-3.9l-0.5-1.7-3.4-2.3-3.9-2.8-2.8-0.5-2.2-5.1z"/>
		<path id="Layer" class="s0" d="m607.6 264.2l1.1-0.6 1.1-0.6v-0.5h1.2l1.1 0.5h0.5v-0.5l0.6-1.7 0.6-1.1 1.1-0.6v3.9l-1.7 2.3h-5.6z"/>
		<path id="Layer" class="s0" d="m594.7 275.9h1.1l0.6 10.1 0.6 9 4.4 10 2.3 12.4-3.4 7.2-6.7 11.2-9 9-1.6 1.1-2.8 0.6-2.3 1.7-1.7 1.1-1.6-0.6v-1.1h-2.3l-1.1 1.7-1.7-1.1-2.2-3.4-0.6-3.9-1.1-3.4 2.8-2.8v-1.1h-1.7l-2.8 1.7v1.7l-1.7 0.5v-6.1l-1.6-1.7h-10.7l-8.4 1.7-7.8 3.3-2.8 0.6-2.3 0.5-1.6-2.8 2.8-9.5 1.6-10.6 0.6-9.5 7.8-4 7.3-1.1 9-8.4 6.1-5 2.8-0.6v2.3h3.4l-1.1-1.7v-1.7l2.2-0.6 3.4-3.9 1.1-1.7h2.2l1.2 1.2 3.9 0.5 0.5 1.7-2.2 5.6 0.6 2.2 1.1 1.7 3.9 3.9 2.2-0.5 3.4-6.2 1.1-5 1.1-3.9z"/>
		<path id="Layer" class="s0" d="m569.5 353.8l1.1-0.6 1.2 1.1 1.6-0.5h2.3l0.5 2.2-2.8 1.7-0.5 1.1-1.7 1.7h-3.9v-2.8l1.1-2.8v-1.7z"/>
		<path id="Layer" class="s0" d="m625.5 343.1l1.1 1.1 0.6 5.1v2.8l2.8 0.5v1.7h-2.8l-2.2 1.7-2.8 2.8-1.7 2.8-2.3-0.6 0.6-2.2 0.6-3.4 2.2-1.1 2.2-2.2 0.6-3.9 0.6-4z"/>
		<path id="Layer" class="s0" d="m614.9 358.8l1.7 1.7 0.5 2.2-2.8 1.1-5 1.2-3.4 2.8-2.2 1.6-1.1 1.7-1.7 1.1h-5.1v-2.8l1.7-1.1 4.5-1.7 2.8-2.2 3.9-1.7 3.4-3.3z"/>
		<g id="y">
			<path id="Layer" class="s0" d="m88.8 578.9q-1.5 0.7-3.1 1.1-1.5 0.4-3.2 0.4-5.1 0-8.1-2.9-3-2.8-3-7.7 0-4.9 3-7.7 3-2.9 8.1-2.9 1.7 0 3.2 0.4 1.6 0.4 3.1 1.1v4.3q-1.5-1-2.9-1.5-1.4-0.5-3-0.5-2.8 0-4.4 1.8-1.7 1.8-1.7 5 0 3.2 1.7 5 1.6 1.8 4.4 1.8 1.6 0 3-0.5 1.4-0.4 2.9-1.4z"/>
		</g>
		<g id="b">
			<path id="Layer" class="s0" d="m104.3 568.9q-0.7-0.3-1.3-0.5-0.6-0.1-1.3-0.1-1.9 0-2.9 1.2-1 1.2-1 3.4v7.1h-4.9v-15.3h4.9v2.5q0.9-1.5 2.2-2.2 1.2-0.7 2.9-0.7 0.2 0 0.5 0 0.3 0.1 0.9 0.1z"/>
		</g>
		<g id="a">
			<path id="Layer" fill-rule="evenodd" class="s0" d="m122 572.3v1.4h-11.5q0.2 1.7 1.3 2.6 1.1 0.8 3 0.8 1.5 0 3.1-0.4 1.7-0.5 3.4-1.4v3.8q-1.8 0.6-3.5 0.9-1.7 0.4-3.5 0.4-4.1 0-6.4-2.1-2.3-2.1-2.3-5.9 0-3.8 2.2-5.9 2.3-2.2 6.2-2.2 3.7 0 5.8 2.2 2.2 2.2 2.2 5.8zm-5-1.6q0-1.4-0.8-2.3-0.9-0.8-2.2-0.8-1.4 0-2.3 0.8-0.9 0.8-1.1 2.3z"/>
		</g>
		<g id="g">
			<path id="Layer" fill-rule="evenodd" class="s0" d="m140 571.3v8.7h-4.9v-2.3q-1 1.4-2.2 2.1-1.2 0.6-3 0.6-2.4 0-3.9-1.4-1.5-1.4-1.4-3.6-0.1-2.7 1.8-3.9 1.9-1.3 5.8-1.3h2.9v-0.4q0-1.1-0.9-1.7-0.9-0.5-2.9-0.5-1.5 0-2.9 0.3-1.4 0.3-2.5 0.9v-3.7q1.6-0.4 3.1-0.6 1.6-0.2 3.2-0.2 4.2 0 6 1.7 1.8 1.6 1.8 5.3zm-7.4 1.8q-1.6 0-2.3 0.5-0.8 0.5-0.8 1.6 0 0.9 0.6 1.4 0.6 0.5 1.7 0.5 1.4 0 2.4-0.9 0.9-1 0.9-2.5v-0.6z"/>
		</g>
		<g id="c">
			<path id="Layer" class="s0" d="m149.9 560.3v4.4h5.1v3.5h-5.1v6.5q0 1.1 0.5 1.4 0.4 0.4 1.6 0.4h2.6v3.5h-4.2q-2.9 0-4.2-1.2-1.2-1.2-1.2-4.1v-6.5h-2.4v-3.5h2.4v-4.4z"/>
		</g>
		<g id="a">
			<path id="Layer" fill-rule="evenodd" class="s0" d="m173.3 572.3v1.4h-11.5q0.2 1.7 1.3 2.6 1 0.8 3 0.8 1.5 0 3.1-0.4 1.6-0.5 3.3-1.4v3.8q-1.7 0.6-3.4 0.9-1.8 0.4-3.5 0.4-4.2 0-6.5-2.1-2.3-2.1-2.3-5.9 0-3.8 2.3-5.9 2.3-2.2 6.2-2.2 3.6 0 5.8 2.2 2.2 2.2 2.2 5.8zm-5.1-1.6q0-1.4-0.8-2.3-0.8-0.8-2.1-0.8-1.4 0-2.3 0.8-0.9 0.8-1.1 2.3z"/>
		</g>
		<g id="l">
			<path id="Layer" fill-rule="evenodd" class="s0" d="m187.4 566.9v-8.2h4.9v21.3h-4.9v-2.2q-1 1.3-2.2 2-1.3 0.6-2.9 0.6-2.8 0-4.6-2.3-1.8-2.2-1.8-5.7 0-3.6 1.8-5.8 1.8-2.3 4.6-2.3 1.6 0 2.8 0.7 1.3 0.6 2.3 1.9zm-3.2 9.9q1.5 0 2.4-1.1 0.8-1.1 0.8-3.3 0-2.2-0.8-3.4-0.9-1.1-2.4-1.1-1.6 0-2.4 1.1-0.9 1.2-0.9 3.4 0 2.1 0.9 3.3 0.8 1.1 2.4 1.1z"/>
		</g>
		<g id="k">
			<path id="Layer" fill-rule="evenodd" class="s0" d="m211.7 566.9q1-1.3 2.2-1.9 1.2-0.7 2.8-0.7 2.9 0 4.7 2.3 1.8 2.2 1.8 5.8 0 3.5-1.8 5.7-1.8 2.3-4.7 2.3-1.6 0-2.8-0.6-1.2-0.7-2.2-2v2.2h-4.9v-21.3h4.9zm3.2 9.9q1.6 0 2.4-1.1 0.8-1.2 0.8-3.3 0-2.2-0.8-3.4-0.8-1.1-2.4-1.1-1.6 0-2.4 1.1-0.8 1.2-0.8 3.4 0 2.1 0.8 3.3 0.8 1.1 2.4 1.1z"/>
		</g>
		<g id="j">
			<path id="Layer" class="s0" d="m224.8 564.7h4.9l4.1 10.4 3.5-10.4h4.9l-6.4 16.8q-1 2.5-2.3 3.5-1.3 1-3.4 1h-2.9v-3.2h1.6q1.2 0 1.8-0.4 0.6-0.4 0.9-1.4l0.1-0.4z"/>
		</g>
		<g id="i">
			<path id="Layer" fill-rule="evenodd" class="s0" d="m267.4 576.3h-8.2l-1.3 3.7h-5.3l7.6-20.4h6.2l7.6 20.4h-5.3zm-6.9-3.8h5.6l-2.8-8.1z"/>
		</g>
		<g id="x">
			<path id="Layer" class="s0" d="m274.5 564.7h4.9l3.9 10.6 3.8-10.6h4.9l-6.1 15.3h-5.3z"/>
		</g>
		<g id="f">
			<path id="Layer" class="s0" d="m310.1 570.7v9.3h-4.9v-7.1q0-2-0.1-2.8-0.1-0.7-0.3-1.1-0.3-0.5-0.8-0.7-0.5-0.3-1.1-0.3-1.5 0-2.4 1.2-0.9 1.2-0.9 3.3v7.5h-4.9v-15.3h4.9v2.2q1.1-1.3 2.4-1.9 1.2-0.7 2.7-0.7 2.7 0 4 1.7 1.4 1.6 1.4 4.7z"/>
		</g>
		<g id="w">
			<path id="Layer" class="s0" d="m314.7 564.7h4.9v15.3h-4.9zm0-6h4.9v4h-4.9z"/>
		</g>
		<g id="h">
			<path id="Layer" class="s0" d="m339.7 570.7v9.3h-5v-7.1q0-2-0.1-2.8-0.1-0.7-0.3-1.1-0.3-0.5-0.8-0.7-0.4-0.3-1.1-0.3-1.5 0-2.4 1.2-0.8 1.2-0.8 3.3v7.5h-4.9v-21.3h4.9v8.2q1.1-1.3 2.3-1.9 1.2-0.7 2.8-0.7 2.6 0 4 1.7 1.4 1.6 1.4 4.7z"/>
		</g>
		<g id="g">
			<path id="Layer" fill-rule="evenodd" class="s0" d="m358.5 571.3v8.7h-4.9v-2.3q-1 1.4-2.2 2.1-1.3 0.6-3 0.6-2.4 0-3.9-1.4-1.5-1.4-1.5-3.6 0-2.7 1.9-3.9 1.8-1.3 5.8-1.3h2.9v-0.4q0-1.1-0.9-1.7-0.9-0.5-2.9-0.5-1.6 0-2.9 0.3-1.4 0.3-2.5 0.9v-3.7q1.5-0.4 3.1-0.6 1.6-0.2 3.2-0.2 4.1 0 6 1.7 1.8 1.6 1.8 5.3zm-7.4 1.8q-1.6 0-2.4 0.5-0.7 0.5-0.7 1.6 0 0.9 0.6 1.4 0.6 0.5 1.7 0.5 1.4 0 2.3-0.9 1-1 1-2.5v-0.6z"/>
		</g>
		<g id="f">
			<path id="Layer" class="s0" d="m378.5 570.7v9.3h-4.9v-7.1q0-2-0.1-2.8-0.1-0.7-0.3-1.1-0.3-0.5-0.8-0.7-0.5-0.3-1.1-0.3-1.6 0-2.4 1.2-0.9 1.2-0.9 3.3v7.5h-4.9v-15.3h4.9v2.2q1.1-1.3 2.3-1.9 1.3-0.7 2.8-0.7 2.6 0 4 1.7 1.4 1.6 1.4 4.7z"/>
		</g>
		<g id="v">
			<path id="Layer" class="s0" d="m393 559.6h5.2v7.4l7.6-7.4h6.1l-9.8 9.7 10.9 10.7h-6.6l-8.2-8v8h-5.2z"/>
		</g>
		<g id="e">
			<path id="Layer" class="s0" d="m414.5 564.7h4.9v15.3h-4.9z"/>
		</g>
		<g id="b">
			<path id="Layer" class="s0" d="m435.4 568.9q-0.6-0.3-1.3-0.5-0.6-0.1-1.2-0.1-1.9 0-2.9 1.2-1 1.2-1 3.4v7.1h-4.9v-15.3h4.9v2.5q0.9-1.5 2.1-2.2 1.2-0.7 3-0.7 0.2 0 0.5 0 0.3 0.1 0.8 0.1z"/>
		</g>
		<g id="e">
			<path id="Layer" class="s0" d="m437.9 564.7h4.9v15.3h-4.9z"/>
		</g>
		<g id="u">
			<path id="Layer" class="s0" d="m459.4 565.2v3.7q-1.5-0.7-3-1-1.5-0.3-2.8-0.3-1.4 0-2 0.3-0.7 0.4-0.7 1.1 0 0.6 0.5 0.9 0.5 0.3 1.8 0.5l0.9 0.1q3.8 0.5 5.1 1.6 1.3 1.1 1.3 3.4 0 2.4-1.9 3.7-1.8 1.2-5.3 1.2-1.6 0-3.2-0.2-1.6-0.3-3.3-0.8v-3.7q1.5 0.7 3 1.1 1.5 0.3 3.1 0.3 1.5 0 2.2-0.3 0.7-0.5 0.7-1.2 0-0.7-0.5-1-0.5-0.3-2-0.5l-0.8-0.1q-3.3-0.4-4.6-1.5-1.3-1.1-1.3-3.4 0-2.4 1.6-3.6 1.7-1.2 5.2-1.2 1.3 0 2.8 0.2 1.5 0.2 3.2 0.7zm-5 14.8q0.7 0.8 1.1 1.6 0.4 0.7 0.4 1.3 0 1.3-0.8 2-0.9 0.6-2.6 0.6-0.7 0-1.4-0.1-0.7-0.1-1.4-0.3v-2.1q0.7 0.3 1.2 0.4 0.6 0.1 1.1 0.1 0.8 0 1.2-0.3 0.4-0.4 0.4-0.9 0-0.4-0.2-0.9-0.3-0.6-1-1.4z"/>
		</g>
		<g id="e">
			<path id="Layer" class="s0" d="m464.1 564.7h4.9v15.3h-4.9z"/>
		</g>
		<g id="t">
			<path id="Layer" class="s0" d="m473.7 558.7h4.9v11.6l5.7-5.6h5.6l-7.4 7 8 8.3h-5.9l-6-6.4v6.4h-4.9z"/>
		</g>
		<g id="s">
			<path id="Layer" class="s0" d="m82.4 586.7v3.2h-2.7q-1 0-1.4 0.4-0.4 0.4-0.4 1.3v1.1h4.1v3.5h-4.1v11.8h-4.9v-11.8h-2.5v-3.5h2.5v-1.1q0-2.5 1.4-3.7 1.3-1.2 4.3-1.2z"/>
		</g>
		<g id="b">
			<path id="Layer" class="s0" d="m95.9 596.9q-0.6-0.3-1.3-0.5-0.6-0.1-1.2-0.1-1.9 0-3 1.2-1 1.2-1 3.4v7.1h-4.9v-15.3h4.9v2.5q1-1.5 2.2-2.2 1.2-0.7 2.9-0.7 0.3 0 0.6 0 0.3 0.1 0.8 0.1z"/>
		</g>
		<g id="d">
			<path id="Layer" fill-rule="evenodd" class="s0" d="m105.6 592.3q4 0 6.2 2.2 2.2 2.1 2.2 5.9 0 3.7-2.2 5.9-2.2 2.1-6.2 2.1-3.9 0-6.2-2.1-2.2-2.2-2.2-5.9 0-3.8 2.2-5.9 2.3-2.2 6.2-2.2zm0 3.5q-1.6 0-2.5 1.2-0.8 1.2-0.8 3.4 0 2.2 0.8 3.3 0.9 1.2 2.5 1.2 1.6 0 2.5-1.2 0.8-1.1 0.8-3.3 0-2.2-0.8-3.4-0.9-1.2-2.5-1.2z"/>
		</g>
		<g id="r">
			<path id="Layer" class="s0" d="m131.8 595.2q0.9-1.4 2.2-2.1 1.3-0.8 2.8-0.8 2.6 0 4 1.7 1.4 1.6 1.4 4.7v9.3h-4.9v-8-0.3q0-0.2 0-0.6 0-1.6-0.5-2.4-0.5-0.7-1.5-0.7-1.4 0-2.2 1.2-0.8 1.1-0.8 3.3v7.5h-4.9v-8q0-2.5-0.4-3.3-0.5-0.7-1.6-0.7-1.4 0-2.2 1.2-0.7 1.1-0.7 3.3v7.5h-4.9v-15.3h4.9v2.2q0.9-1.3 2-1.9 1.2-0.7 2.6-0.7 1.6 0 2.8 0.8 1.2 0.7 1.9 2.1z"/>
		</g>
		<g id="c">
			<path id="Layer" class="s0" d="m161.9 588.3v4.4h5v3.5h-5v6.5q0 1.1 0.4 1.4 0.4 0.4 1.6 0.4h2.6v3.5h-4.2q-2.9 0-4.1-1.2-1.3-1.2-1.3-4.1v-6.5h-2.4v-3.5h2.4v-4.4z"/>
		</g>
		<g id="h">
			<path id="Layer" class="s0" d="m185.3 598.7v9.3h-4.9v-7.1q0-2-0.1-2.8-0.1-0.7-0.3-1.1-0.3-0.5-0.8-0.7-0.5-0.3-1.1-0.3-1.6 0-2.4 1.2-0.9 1.2-0.9 3.3v7.5h-4.9v-21.3h4.9v8.2q1.1-1.3 2.3-1.9 1.3-0.7 2.8-0.7 2.6 0 4 1.7 1.4 1.6 1.4 4.7z"/>
		</g>
		<g id="a">
			<path id="Layer" fill-rule="evenodd" class="s0" d="m205.1 600.3v1.4h-11.4q0.1 1.7 1.2 2.6 1.1 0.8 3 0.8 1.5 0 3.1-0.4 1.7-0.5 3.4-1.4v3.8q-1.8 0.6-3.5 0.9-1.7 0.4-3.5 0.4-4.1 0-6.4-2.1-2.3-2.1-2.3-5.9 0-3.8 2.2-5.9 2.3-2.2 6.3-2.2 3.6 0 5.7 2.2 2.2 2.2 2.2 5.8zm-5-1.6q0-1.4-0.8-2.3-0.8-0.8-2.2-0.8-1.4 0-2.3 0.8-0.9 0.8-1.1 2.3z"/>
		</g>
		<g id="q">
			<path id="Layer" class="s0" d="m218.8 587.6h5.9l7.4 14v-14h5v20.4h-5.9l-7.4-14v14h-5z"/>
		</g>
		<g id="d">
			<path id="Layer" fill-rule="evenodd" class="s0" d="m249.3 592.3q3.9 0 6.2 2.2 2.2 2.1 2.2 5.9 0 3.7-2.2 5.9-2.3 2.1-6.2 2.1-4 0-6.2-2.1-2.3-2.2-2.3-5.9 0-3.8 2.3-5.9 2.2-2.2 6.2-2.2zm0 3.5q-1.6 0-2.5 1.2-0.9 1.2-0.9 3.4 0 2.2 0.9 3.3 0.9 1.2 2.5 1.2 1.6 0 2.4-1.2 0.9-1.1 0.9-3.3 0-2.2-0.9-3.4-0.8-1.2-2.4-1.2z"/>
		</g>
		<g id="p">
			<path id="Layer" class="s0" d="m261.1 602v-9.3h4.9v1.5q0 1.3 0 3.1 0 1.9 0 2.5 0 1.9 0.1 2.7 0.1 0.8 0.3 1.2 0.3 0.5 0.8 0.7 0.5 0.3 1.1 0.3 1.5 0 2.4-1.2 0.9-1.2 0.9-3.3v-7.5h4.9v15.3h-4.9v-2.2q-1.1 1.3-2.4 2-1.2 0.6-2.7 0.6-2.7 0-4-1.6-1.4-1.7-1.4-4.8z"/>
		</g>
		<g id="f">
			<path id="Layer" class="s0" d="m296.6 598.7v9.3h-5v-7.1q0-2-0.1-2.8 0-0.7-0.3-1.1-0.2-0.5-0.7-0.7-0.5-0.3-1.2-0.3-1.5 0-2.4 1.2-0.8 1.2-0.8 3.3v7.5h-4.9v-15.3h4.9v2.2q1.1-1.3 2.3-1.9 1.3-0.7 2.8-0.7 2.6 0 4 1.7 1.4 1.6 1.4 4.7z"/>
		</g>
		<g id="o">
			<path id="Layer" fill-rule="evenodd" class="s0" d="m311.1 587.6h8.7q3.9 0 6 1.7 2.1 1.8 2.1 5 0 3.2-2.1 4.9-2.1 1.7-6 1.7h-3.5v7.1h-5.2zm5.2 3.8v5.7h2.9q1.6 0 2.4-0.7 0.8-0.8 0.8-2.1 0-1.4-0.8-2.2-0.8-0.7-2.4-0.7z"/>
		</g>
		<g id="b">
			<path id="Layer" class="s0" d="m342.7 596.9q-0.6-0.3-1.2-0.5-0.7-0.1-1.3-0.1-1.9 0-2.9 1.2-1 1.2-1 3.4v7.1h-4.9v-15.3h4.9v2.5q0.9-1.5 2.1-2.2 1.3-0.7 3-0.7 0.2 0 0.5 0 0.3 0.1 0.8 0.1z"/>
		</g>
		<g id="d">
			<path id="Layer" fill-rule="evenodd" class="s0" d="m352.5 592.3q3.9 0 6.1 2.2 2.2 2.1 2.3 5.9-0.1 3.7-2.3 5.9-2.2 2.1-6.1 2.1-4 0-6.2-2.1-2.3-2.2-2.3-5.9 0-3.8 2.3-5.9 2.2-2.2 6.2-2.2zm0 3.5q-1.7 0-2.5 1.2-0.9 1.2-0.9 3.4 0 2.2 0.9 3.3 0.8 1.2 2.5 1.2 1.6 0 2.4-1.2 0.9-1.1 0.9-3.3 0-2.2-0.9-3.4-0.8-1.2-2.4-1.2z"/>
		</g>
		<g id="n">
			<path id="Layer" class="s0" d="m364.4 592.7h4.9v15q0 3.1-1.5 4.7-1.4 1.6-4.3 1.6h-2.4v-3.2h0.9q1.4 0 1.9-0.6 0.5-0.6 0.5-2.5zm0-5.9h4.9v4h-4.9z"/>
		</g>
		<g id="a">
			<path id="Layer" fill-rule="evenodd" class="s0" d="m389.3 600.3v1.4h-11.5q0.2 1.7 1.3 2.6 1.1 0.8 3 0.8 1.5 0 3.1-0.4 1.7-0.5 3.4-1.4v3.8q-1.8 0.6-3.5 0.9-1.7 0.4-3.5 0.4-4.1 0-6.4-2.1-2.3-2.1-2.3-5.9 0-3.8 2.2-5.9 2.3-2.2 6.2-2.2 3.7 0 5.8 2.2 2.2 2.2 2.2 5.8zm-5-1.6q0-1.4-0.8-2.3-0.9-0.8-2.2-0.8-1.4 0-2.3 0.8-0.9 0.8-1.1 2.3z"/>
		</g>
		<g id="m">
			<path id="Layer" class="s0" d="m405.4 593.2v4q-1-0.7-2-1.1-1-0.3-2.1-0.3-2.1 0-3.2 1.2-1.2 1.2-1.2 3.4 0 2.1 1.2 3.3 1.1 1.2 3.2 1.2 1.1 0 2.2-0.3 1-0.4 1.9-1.1v4q-1.2 0.5-2.4 0.7-1.1 0.2-2.3 0.2-4.2 0-6.5-2.1-2.4-2.2-2.3-5.9-0.1-3.8 2.3-6 2.3-2.1 6.5-2.1 1.2 0 2.3 0.2 1.2 0.2 2.4 0.7z"/>
		</g>
		<g id="c">
			<path id="Layer" class="s0" d="m414.9 588.3v4.4h5.1v3.5h-5.1v6.5q0 1.1 0.5 1.4 0.4 0.4 1.6 0.4h2.6v3.5h-4.2q-2.9 0-4.2-1.2-1.2-1.2-1.2-4.1v-6.5h-2.4v-3.5h2.4v-4.4z"/>
		</g>
	</g>
</svg>